<svg xmlns="http://www.w3.org/2000/svg" viewBox="0 0 512 512">
  <defs>
    <linearGradient id="bgGrad" x1="0%" y1="0%" x2="100%" y2="100%">
      <stop offset="0%" style="stop-color:#1a1a2e"/>
      <stop offset="100%" style="stop-color:#0d0d1a"/>
    </linearGradient>
    <linearGradient id="orangeGrad" x1="0%" y1="0%" x2="100%" y2="100%">
      <stop offset="0%" style="stop-color:#f7931a"/>
      <stop offset="100%" style="stop-color:#e8850f"/>
    </linearGradient>
    <linearGradient id="goldGrad" x1="0%" y1="0%" x2="100%" y2="100%">
      <stop offset="0%" style="stop-color:#ffd700"/>
      <stop offset="100%" style="stop-color:#f7931a"/>
    </linearGradient>
  </defs>

  <!-- Background Circle -->
  <circle cx="256" cy="256" r="250" fill="url(#bgGrad)" stroke="#f7931a" stroke-width="4"/>

  <!-- Inner glow ring -->
  <circle cx="256" cy="256" r="220" fill="none" stroke="#f7931a" stroke-width="1" opacity="0.3"/>
  <circle cx="256" cy="256" r="200" fill="none" stroke="#f7931a" stroke-width="1" opacity="0.2"/>

  <!-- Bitcoin Symbol (centered, slightly offset up) -->
  <g transform="translate(256, 240)">
    <!-- Main Bitcoin B -->
    <path fill="url(#orangeGrad)" d="
      M45 -60
      c15-5 25-15 27-32
      c3-25-15-38-42-47
      l8-35 -21-5 -8 33
      c-6-1.5-11-3-17-4.5
      l8-33 -21-5 -8 35
      c-5-1-10-2.5-14.5-3.5
      l-29-7 -5.5 23
      c0 0 16 3.5 15.5 4
      c9 2 10.5 8.5 10 13.5
      l-10 42
      c1 0 2 0.5 3 1
      c-1-0.5-2-0.5-3-0.5
      l-14.5 58
      c-1 2.5-3.5 6.5-9.5 5
      c0.5 0.5-15.5-4-15.5-4
      l-10.5 25
      l27.5 7
      c5 1.5 10 2.5 15 4
      l-8.5 35
      l21 5
      l8.5-35
      c5.5 1.5 11 3 16.5 4.5
      l-8.5 34
      l21 5
      l8.5-35
      c36 7 63 4 74-28.5
      c9-26-0.5-41-19.5-51
      M16 25
      c-6.5 26-50 12-64 8.5
      l11.5-46
      c14 3.5 59.5 10.5 52.5 37.5
      M24.5-35
      c-6 24-42 12-54 9
      l10.5-42
      c12 3 50 8.5 43.5 33
    "/>
  </g>

  <!-- Terminal/Code bracket left -->
  <g transform="translate(80, 256)">
    <path d="M40 -60 L0 0 L40 60" fill="none" stroke="#f7931a" stroke-width="12" stroke-linecap="round" stroke-linejoin="round" opacity="0.8"/>
  </g>

  <!-- Terminal/Code bracket right -->
  <g transform="translate(432, 256)">
    <path d="M-40 -60 L0 0 L-40 60" fill="none" stroke="#f7931a" stroke-width="12" stroke-linecap="round" stroke-linejoin="round" opacity="0.8"/>
  </g>

  <!-- "Regtest" indicator - mining pickaxe hint at bottom -->
  <g transform="translate(256, 420)">
    <!-- Cube/Block icon -->
    <path d="M0 -25 L30 -10 L30 20 L0 35 L-30 20 L-30 -10 Z" fill="none" stroke="url(#goldGrad)" stroke-width="4" stroke-linejoin="round"/>
    <path d="M0 -25 L0 5 M0 5 L30 20 M0 5 L-30 20" fill="none" stroke="url(#goldGrad)" stroke-width="3" stroke-linecap="round"/>
  </g>

  <!-- Small decorative dots/nodes -->
  <circle cx="130" cy="150" r="6" fill="#f7931a" opacity="0.6"/>
  <circle cx="382" cy="150" r="6" fill="#f7931a" opacity="0.6"/>
  <circle cx="130" cy="362" r="6" fill="#f7931a" opacity="0.6"/>
  <circle cx="382" cy="362" r="6" fill="#f7931a" opacity="0.6"/>

  <!-- Connection lines -->
  <line x1="136" y1="156" x2="170" y2="190" stroke="#f7931a" stroke-width="2" opacity="0.3"/>
  <line x1="376" y1="156" x2="342" y2="190" stroke="#f7931a" stroke-width="2" opacity="0.3"/>
  <line x1="136" y1="356" x2="170" y2="322" stroke="#f7931a" stroke-width="2" opacity="0.3"/>
  <line x1="376" y1="356" x2="342" y2="322" stroke="#f7931a" stroke-width="2" opacity="0.3"/>
</svg>
